<?xml version="1.0" encoding="UTF-8"?>
<svg id="Layer_1" data-name="Layer 1" xmlns="http://www.w3.org/2000/svg" viewBox="0 0 900 900">
  <defs>
    <style>
      .cls-1 {
        fill: #fff;
      }

      .cls-2 {
        fill: #68442c;
      }
    </style>
  </defs>
  <g>
    <path class="cls-1" d="M273.09,417.28c0-24.38-21.21-30.29-40.35-36.43-.1-.02-.18-.05-.28-.09-15.65-5.02-29.84-10.23-29.84-25.91,0-11.82,9.06-23.99,29.63-27.61,8.84-1.41,16.84-.6,22.71,3.53,6.07,4.26,9.86,12.05,9.96,24.57l1.24-.25v-30.7l-1.24,.24c.04,2.59-3.4,2.53-7.4,2-2.55-.34-5.34-.87-7.59-1-14.74-2.15-34.5,2.94-45.78,12.61h0c-10.93,8.3-16.77,26.9-9.67,39.94,5.65,11.06,20.2,14.86,33.97,19.23,15.24,4.84,29.55,10.36,29.89,27.12-.17,22.66-15.29,33.64-32.29,37.29-.64,.12-1.27,.24-1.91,.32-15.73,2.31-31.46-4.39-31.46-28.63-.3,.06-.95,.18-1.25,.24v30.71l1.25-.25v-3c.03-1.83,.86-2.01,2.27-1.65,4.06,.98,13.49,6.35,29.3,3.8,.59-.09,1.2-.19,1.8-.31,25.72-4.39,47.84-24.37,47.03-45.79Z"/>
    <path class="cls-1" d="M446.08,527.7c-2.98-14.95-5.07-27.01-5.78-42.27-.27-5.76-.34-11.54-.25-17.31,.4-25.44,2-76.98,3.06-102.57-.13-16.82-5.43-26.65-14.83-29.98-8.89-2.76-17.88-1.2-25.05,3.76-.26,.18-.52,.36-.8,.58-.24,.18-.47,.36-.71,.56-.24,.18-.47,.37-.71,.59-5.25,4.4-9.27,10.79-11.14,18.73l-1.07-18.14-21.65,4.17v1.24c7.8-1.52,7.8-.28,7.8,15.78v51.16c0,2.31,0,4.62-.05,6.93-.04,1.62-.09,3.25-.29,4.86-.13,1.08-.33,2.18-.75,3.19-.32,.76-.79,1.44-1.43,1.96-.88,.71-1.96,1.07-3.03,1.35-2.04,.54-4.12,.95-6.21,1.24-.85,.12-1.74,.22-2.6,.09-.64-.09-1.25-.34-1.71-.81-.53-.55-.82-1.3-1.01-2.03-.3-1.16-.41-2.37-.49-3.57-.12-1.8-.14-3.61-.16-5.41-.01-1.46-.01-2.92-.01-4.38v-69.68l-22.88,4.42v1.24c7.8-1.51,7.63-.25,7.8,15.78,.18,14.43,0,24.34,0,36.34,0,2.42-.33,4.84-.83,7.21-.57,2.75-1.38,5.45-2.37,8.08-1.04,2.76-2.28,5.45-3.75,8.01-1.41,2.47-3.03,4.83-4.92,6.96-2.9,3.26-6.63,6.14-11.03,7-17.56,3.39-15.27-15.57-15.27-84.75l-22.88,4.43v1.23c7.81-1.51,7.81-.28,7.81,15.79,0,41.98-3.37,72.1,26.45,66.34,3.19-.61,6.25-1.82,9.01-3.53,2.5-1.55,4.75-3.48,6.73-5.64,5.79-6.32,9.39-14.71,11.05-21.93-.06,.24-.02,.55-.02,.81,0,.27-.01,.55-.02,.82,0,.53-.01,1.05-.02,1.58,0,.98,0,1.96,.04,2.93,.05,1.67,.16,3.34,.39,4.99,.18,1.32,.44,2.63,.85,3.9,.33,1.02,.75,2.01,1.34,2.91,.51,.77,1.13,1.46,1.88,2s1.58,.93,2.46,1.19c1,.3,2.05,.43,3.09,.47,1.25,.05,2.51-.02,3.76-.16,1.5-.16,2.99-.41,4.47-.69,2.15-.41,4.28-.92,6.42-1.35,1.41-.28,2.82-.54,4.23-.81,1-.19,2.01-.39,3.01-.58l3.96-.76c1.49-.29,2.99-.58,4.48-.87l4.59-.89c1.42-.28,2.85-.55,4.27-.83,1.18-.23,2.36-.46,3.54-.68l2.38-.46,.81-.16v-1.24q-7.98,1.55-7.98-15.75v-41.64c.15-11.49,4.59-21.84,11.51-27.79,.23-.18,.45-.37,.68-.56,.23-.18,.47-.36,.72-.55,.25-.18,.5-.36,.75-.54,3.19-2.16,6.8-3.44,10.69-3.59,11.14,.3,12.51,15.86,13.21,23.99,2.77,30.98,3.09,67.41,3.95,98.72,.3,22.97-.61,46.25-5.79,68.71-1.25,5.38-2.75,10.69-3.61,16.17-1.06,6.78-1.4,15.08,1.27,21.56,1.7,4.13,4.71,8.41,9.24,9.7,2.01,.59,4.21,.46,6.19-.21,5.48-1.88,8.67-7.35,10.05-12.66,2.64-10.09-.85-24.77-2.83-34.71Z"/>
    <path class="cls-1" d="M503.99,317.62c-10.39,2-19.66,10.74-24.83,20.67-.01,.01-.01,.02-.01,.03-.16,.31-.32,.62-.47,.93-1.15,2.32-2.07,4.71-2.72,7.08l-1.07-21.33-21.66,4.19v1.23c7.82-1.5,7.82-.26,7.82,15.79v51.16c0,16.06-.18,17.33-7.99,18.84v1.23l31.05-6v-1.23q-7.98,1.55-7.98-15.75v-43.22c.45-3.91,1.69-7.85,3.5-11.54,.15-.31,.3-.61,.45-.91,4.73-9.02,12.86-16.39,21.26-18,4.08-.79,6.57,1.19,6.57,4.2s-3.91,3.93-3.91,10.46c0,4.24,3.54,7.26,7.99,6.4,12.6-2.44,12.6-28.2-7.99-24.21Z"/>
    <path class="cls-1" d="M540.19,284.86c-4.96,.96-8.87,5.59-8.87,10.54s3.91,8.06,8.87,7.11c4.97-.96,8.88-5.6,8.88-10.54s-3.91-8.06-8.88-7.11Zm7.63,95.75v-69.69l-22.89,4.42v1.23c7.81-1.51,7.81-.27,7.81,15.78v51.18c0,16.06-.17,17.32-7.99,18.83v1.24l31.06-6v-1.23q-7.99,1.54-7.99-15.75Z"/>
    <path class="cls-1" d="M574.81,320.34c0-9.93,8.13-16.15,17.78-18.55,.31-.09,.62-.16,.94-.22,.18-.04,.37-.09,.55-.12,.09-.02,.17-.03,.26-.05,.05-.01,.12-.02,.17-.03,.1-.01,.2-.03,.31-.05,.11-.02,.2-.04,.3-.05,.11-.01,.2-.03,.3-.05,.11-.02,.2-.03,.3-.04,.19-.03,.4-.06,.59-.09,.2-.02,.4-.04,.58-.06,17.98-1.82,19.62,18.38,19.62,27.86l1.25-.25c0-8.42-.13-16.81-.16-25.21-.02-1.47-.02-2.93-.02-4.4l-1.24,.25c0,.91-.27,1.36-.93,1.57-.1,.02-.2,.05-.32,.07-2.53,.48-8.88-2.09-18.31-1.07h-.02c-.19,.02-.39,.04-.58,.06-.2,.02-.41,.05-.62,.09-.11,.01-.22,.02-.32,.05-.1,0-.19,.02-.3,.04-.1,.01-.19,.03-.29,.04h-.01c-.11,.02-.2,.03-.31,.05-.09,.01-.15,.03-.23,.04l-.19,.03h-.03s-.03,.01-.04,.01c-.17,.03-.33,.05-.51,.09h-.01s-.03,.01-.04,.01c-.31,.06-.62,.12-.93,.18-22.48,4.71-28.53,19.37-28.53,27.03,0,31.41,47.38,13.08,47.74,39.83,.17,11.43-4.96,20.89-18.46,23.51-.32,.06-.64,.12-.95,.17-15.84,2.74-27.1-3.71-27.1-28.45l-1.24,.24v29.65l1.24-.25v-3c0-6.29,4.52,7.12,27.31,3.01h.02c.24-.03,.47-.09,.72-.13,28.74-5.74,33.19-25.29,33.19-32.18,0-33.35-51.47-19.88-51.47-39.64Z"/>
    <path class="cls-1" d="M693.31,356.9c-4.57,9.32-11.83,16.93-22.31,18.96-5.5,1.06-9.68-.21-12.88-2.95h0s-.01-.01-.01-.01c-.8-.7-1.54-1.49-2.22-2.35-3.03-3.86-4.9-9.31-6.02-15.12-.95-4.75-1.39-9.75-1.58-14.33,2.26-.54,4.76-1.12,7.41-1.81,.42-.11,.84-.21,1.27-.33,.19-.05,.4-.11,.6-.16,.19-.04,.39-.11,.59-.16,18.27-4.89,41.85-13.74,42.49-31.99,.17-16.38-12.74-24.75-29.91-21.29-.26,.05-.53,.11-.8,.17-1.83,.39-3.7,.92-5.62,1.59-16.35,5.51-27.67,18.94-31.09,37.55-.73,3.89-1.1,8.01-1.1,12.32-.12,25.26,9.69,39.23,26.24,40.93,3.85,.41,8.08,.13,12.62-.81,21.29-4.1,29.65-28.82,29.65-47.35l-1.26,.24c0,8.43-1.9,18.4-6.08,26.93Zm-28.09-68.32c1.54-.79,3.2-1.42,5-1.84,.26-.05,.52-.11,.79-.16,11.9-2.29,15.98,1.86,15.98,16.68,0,8.56-1.42,14.95-4.59,19.91-4.43,6.95-12.3,11.08-24.51,14.41-.19,.05-.4,.11-.59,.16-.2,.05-.4,.11-.6,.16-.41,.11-.83,.21-1.26,.32-2.24,.56-4.62,1.1-7.14,1.64-.69-16.77,.89-42.3,16.93-51.27Z"/>
    <path class="cls-1" d="M340.69,481.12c.58-14.08,10.26-23.83,29.63-27.61,10.07-1.82,22.05-.55,28.33,9.64,2.69,4.37,4.33,10.37,4.33,18.45l1.24-.25v-30.7l-1.24,.25c0,1.23-.71,1.89-1.95,2.14-4.59,.88-16.85-3.35-30.92-.73-.11,.01-.2,.03-.31,.05-21.51,4.05-40.44,16.91-40.29,39.2,0,40.05,66.74,23.1,66.91,59.24,1,19.74-15.07,33.85-31.57,37.35-16.99,3.6-34.4-4.05-34.09-28.37l-1.25,.24v30.71l1.25-.25v-3c0-1.06,.36-1.65,.88-1.76,3.03-.59,13.31,7.3,32.49,3.6,.31-.06,.62-.13,.94-.2,28.21-5.94,46.1-24.65,46.1-45.59,0-44.45-70.46-27.49-70.46-62.43Z"/>
    <path class="cls-1" d="M494.64,472.79c-.85,.16-1.66,.37-2.44,.63-1.21,.4-2.34,.89-3.39,1.49-.22,.13-.43,.26-.65,.4s-.43,.28-.65,.44c-4.95,3.4-8.1,9.34-9.73,17.25v-1.24l-1.24-13.69-21.65,4.17v1.24c7.81-1.51,7.81-.28,7.81,15.78v95.29c0,16.05-.17,17.31-7.98,18.82v1.24l31.05-6v-1.23q-7.99,1.54-7.99-15.75v-44.46c1.58,7.7,5.02,15.58,12.58,17.09h.01c.42,.1,.84,.16,1.28,.2,1.44,.15,3.04,.07,4.77-.26,21.65-4.19,36.92-23.89,36.92-54.76,0-27.71-15.27-41.17-38.7-36.65Zm1.25,90.28c-1.5,.29-2.86,.35-4.13,.22-.41-.04-.8-.11-1.17-.18-11.83-2.53-12.8-23.18-12.8-28.47v-28.23c0-14.97,4.13-25.31,10.36-29.75,.2-.14,.41-.28,.61-.41,.22-.14,.43-.27,.65-.39,1.01-.57,2.07-.98,3.17-1.25,.28-.06,.56-.12,.84-.17,19.35-3.38,23.6,21.38,23.96,38.06,.36,16.16-1.59,46.71-21.47,50.55Z"/>
    <path class="cls-1" d="M554.28,477.69c0-10.59,9.24-16.97,19.72-19,.82-.16,1.62-.28,2.38-.35,17.99-1.81,19.62,18.4,19.62,27.87l1.25-.25c0-9.88-.18-19.72-.18-29.61l-1.25,.24c0,1.06-.34,1.49-1.24,1.66-2.53,.49-8.89-2.09-18.31-1.06h-.01c-1.13,.11-2.29,.28-3.51,.51-23.26,4.48-29.46,19.46-29.46,27.22,0,31.41,47.39,13.07,47.73,39.83,.18,11.43-4.96,20.89-18.46,23.5-.32,.06-.64,.12-.95,.17-15.83,2.74-27.09-3.71-27.09-28.45l-1.24,.25v29.63l1.24-.24v-3c0-6.28,4.52,7.11,27.3,3.02h.02c.24-.04,.47-.1,.72-.14,28.76-5.74,33.19-25.29,33.19-32.18,0-33.35-51.47-19.88-51.47-39.63Z"/>
    <path class="cls-2" d="M442.87,554.41c-.16-1.53-.52-3.04-1.05-4.48h0c-.04,1.45,0,2.92-.19,4.36-.19,1.37-.54,2.72-1.09,3.99-.4,.93-.9,1.81-1.51,2.61-1.38,1.79-3.25,2.78-5.16,2.69-1.84-.08-3.49-1.12-4.65-2.93l-1.68-2.62,.77,3.02c1.23,4.78,3.79,7.52,6.96,7.52,.26,0,.53-.02,.8-.06,3.52-.5,7.15-4.53,6.96-11.02,0-.99-.05-1.99-.17-3.07Z"/>
  </g>
  <g>
    <path class="cls-1" d="M746.73,467.23l-78.83-5.43c-.17-.03-.33,.12-.35,.3-.05,.72-.12,1.42-.18,2.13,0,.09,.02,.17,.08,.24s.14,.11,.22,.11l78.87,5.44s.02,0,.02,0c.08,0,.15-.03,.21-.08,.07-.06,.11-.14,.11-.22l.14-2.14c.01-.18-.12-.33-.3-.34Z"/>
    <path class="cls-1" d="M702.44,497.06l-38.51-7.55c-.09-.02-.17,0-.24,.05-.07,.05-.12,.12-.14,.21-.13,.66-.27,1.32-.41,1.97l-.03,.12c-.02,.09,0,.17,.05,.25,.05,.07,.12,.12,.21,.14l38.53,7.55s.04,0,.06,0c.15,0,.29-.11,.32-.26l.42-2.1c.02-.08,0-.17-.05-.24-.05-.07-.12-.12-.21-.14Z"/>
    <path class="cls-1" d="M668.21,436.41c.06,.06,.14,.09,.22,.09h.02l38.42-2.08c.09,0,.17-.04,.22-.11,.06-.06,.09-.15,.08-.23l-.12-2.14c-.01-.18-.18-.32-.34-.3l-38.39,2.08c-.18,0-.32,.16-.31,.34,.03,.72,.07,1.42,.09,2.14,0,.09,.04,.17,.1,.23Z"/>
    <path class="cls-1" d="M655.58,519.06l37.7,12.44s.07,.02,.1,.02c.05,0,.1-.01,.15-.03,.08-.04,.14-.11,.16-.19l.68-2.03c.06-.17-.04-.35-.21-.41l-37.67-12.43c-.17-.05-.35,.04-.41,.21-.22,.67-.46,1.34-.71,2.01-.03,.08-.03,.17,.01,.25,.04,.08,.11,.14,.19,.17Z"/>
    <path class="cls-1" d="M632,565.91c-.15-.09-.35-.05-.45,.1-.27,.42-.55,.84-.83,1.26l-.35,.53c-.05,.07-.06,.16-.05,.24,.02,.09,.07,.16,.14,.21l68.14,43.48c.05,.03,.12,.05,.18,.05,.11,0,.21-.05,.27-.15l1.16-1.8c.05-.07,.06-.16,.04-.24-.02-.08-.07-.16-.14-.2l-68.12-43.47Z"/>
    <path class="cls-1" d="M615.21,588.09c-.14-.11-.34-.1-.46,.04-.44,.52-.89,1.03-1.34,1.54l-.07,.07c-.06,.07-.09,.15-.08,.24,0,.09,.05,.17,.12,.22l31.68,26.29c.06,.05,.13,.07,.21,.07,.09,0,.19-.04,.25-.12l1.38-1.64c.06-.07,.08-.15,.07-.24,0-.09-.05-.17-.12-.22l-31.65-26.27Z"/>
    <path class="cls-1" d="M680.98,561.5s.09,.03,.14,.03c.12,0,.24-.07,.29-.18l.94-1.93c.04-.08,.04-.17,.01-.25s-.09-.15-.17-.18l-36.31-17.21c-.16-.08-.35,0-.43,.15-.31,.64-.63,1.28-.96,1.91-.04,.08-.05,.17-.02,.25,.03,.08,.09,.15,.17,.19l36.33,17.22Z"/>
    <path class="cls-1" d="M595.81,607.98c-.12-.13-.33-.14-.46-.02-.53,.48-1.06,.96-1.59,1.43-.06,.06-.1,.14-.11,.23,0,.09,.03,.17,.09,.24l28.47,30.35c.06,.07,.15,.1,.24,.1,.08,0,.16-.03,.22-.09l1.57-1.46c.06-.06,.1-.14,.1-.23,0-.09-.03-.17-.09-.23l-28.45-30.32Z"/>
    <path class="cls-1" d="M550.85,639.57c-.09-.15-.28-.21-.44-.13l-1.91,1c-.08,.04-.14,.11-.16,.19-.03,.08-.02,.17,.03,.25l39.98,72.35c.04,.08,.11,.13,.19,.15,.03,0,.06,.01,.09,.01,.05,0,.11-.01,.16-.04l1.88-1.04c.16-.09,.21-.28,.13-.44l-39.96-72.31Z"/>
    <path class="cls-1" d="M525.29,650.81l-2.01,.75c-.08,.03-.15,.09-.18,.17-.04,.08-.04,.17,0,.25l15.87,39.93c.03,.08,.09,.14,.17,.18,.04,.02,.09,.03,.13,.03,.04,0,.08,0,.12-.02l2-.79c.17-.07,.25-.25,.18-.42l-15.86-39.88c-.07-.16-.25-.25-.42-.18Z"/>
    <path class="cls-1" d="M574.43,625.08c-.1-.14-.3-.18-.45-.07-.59,.42-1.17,.82-1.76,1.23-.07,.05-.12,.13-.14,.21-.01,.09,0,.17,.06,.24l24.81,33.99c.06,.09,.16,.13,.26,.13,.07,0,.13-.02,.19-.06l1.74-1.25c.07-.05,.12-.13,.13-.21,.01-.09,0-.17-.06-.24l-24.79-33.96Z"/>
    <path class="cls-1" d="M499.01,658.96c-.64,.16-1.29,.31-1.94,.45l-.16,.04c-.09,.02-.16,.07-.2,.15-.05,.07-.06,.16-.04,.25l10.82,42.08c.04,.15,.17,.24,.31,.24,.03,0,.05,0,.08,0l2.09-.52c.08-.02,.16-.07,.2-.15,.04-.07,.06-.16,.04-.25l-10.81-42.04c-.04-.17-.22-.28-.39-.23Z"/>
    <path class="cls-1" d="M444.84,665.26c-.72,0-1.44,0-2.14-.02-.08,0-.17,.03-.24,.09-.06,.06-.1,.14-.1,.23l.16,84.19c0,.18,.15,.32,.32,.32h2.15c.09,0,.17-.03,.23-.09s.1-.14,.09-.23l-.16-84.17c0-.18-.15-.32-.32-.32Z"/>
    <path class="cls-1" d="M417.44,663.47c-.71-.1-1.42-.19-2.14-.28-.17,0-.34,.11-.36,.28l-5.45,44.08c-.02,.18,.1,.34,.28,.36l2.13,.27s.03,0,.04,0c.07,0,.14-.02,.2-.07,.07-.05,.11-.13,.12-.22l5.45-44.07c.02-.17-.1-.34-.28-.36Z"/>
    <path class="cls-1" d="M472.55,663.8c-.07-.05-.16-.07-.24-.06-.68,.09-1.35,.16-2.03,.24h-.1c-.09,.02-.17,.06-.22,.13-.05,.07-.08,.16-.07,.24l5.52,43.39c.02,.16,.16,.28,.32,.28,.01,0,.03,0,.04,0l2.14-.27c.09-.01,.16-.05,.22-.12,.05-.07,.08-.15,.07-.24l-5.53-43.37c-.01-.09-.06-.16-.12-.22Z"/>
    <path class="cls-1" d="M390.56,658.34c-.69-.17-1.38-.35-2.07-.54-.08-.02-.17-.01-.25,.03-.08,.04-.13,.12-.15,.2l-11.04,43.31c-.02,.08,0,.17,.04,.24,.04,.07,.12,.13,.2,.15l2.09,.52s.05,0,.08,0c.15,0,.28-.1,.32-.24l11.03-43.29c.02-.08,0-.17-.04-.25-.04-.07-.12-.13-.2-.15Z"/>
    <path class="cls-1" d="M338.26,637.62c-.08-.04-.17-.05-.25-.03-.08,.02-.15,.08-.19,.16l-40.88,74.65c-.09,.16-.03,.35,.13,.44l1.9,1.03s.1,.04,.16,.04c.03,0,.06,0,.09-.01,.08-.02,.15-.08,.19-.16l40.87-74.65c.04-.08,.05-.16,.03-.25s-.08-.15-.16-.19c-.63-.34-1.26-.68-1.88-1.03Z"/>
    <path class="cls-1" d="M317.1,624.45c-.01-.09-.06-.16-.13-.21-.59-.42-1.16-.82-1.74-1.25-.07-.05-.16-.07-.24-.06-.09,.01-.16,.06-.21,.13l-26.47,36.56c-.05,.07-.07,.16-.06,.24,.01,.08,.06,.16,.13,.21l1.76,1.25c.06,.04,.12,.06,.19,.06,.1,0,.2-.05,.26-.13l26.46-36.56c.05-.07,.07-.16,.06-.24Z"/>
    <path class="cls-1" d="M364.91,650.1c-.66-.25-1.33-.51-1.99-.78-.08-.03-.17-.03-.25,0-.08,.03-.14,.1-.17,.18l-16.43,41.77c-.03,.08-.03,.17,0,.25,.03,.08,.1,.14,.18,.17l2.01,.78s.08,.02,.12,.02c.13,0,.25-.08,.3-.21l16.42-41.77c.03-.08,.03-.17,0-.25-.04-.08-.1-.14-.18-.17Z"/>
    <path class="cls-1" d="M295.84,607.34c0-.09-.04-.17-.1-.23l-.07-.06c-.5-.46-1.01-.92-1.51-1.39-.06-.06-.15-.09-.23-.09-.09,0-.17,.04-.23,.1l-30.83,33c-.12,.13-.11,.33,.02,.46l1.57,1.47c.06,.06,.14,.09,.22,.09h.01c.09,0,.17-.04,.23-.1l30.84-33.01c.06-.06,.09-.15,.09-.23Z"/>
    <path class="cls-1" d="M260.58,566.34c.02-.08,0-.17-.05-.24l-.35-.53c-.28-.42-.56-.83-.83-1.26-.05-.07-.12-.12-.2-.14-.09-.02-.17,0-.25,.04l-71.7,46.13c-.07,.05-.12,.12-.14,.2s0,.17,.05,.24l1.17,1.8c.06,.1,.17,.15,.27,.15,.06,0,.12-.02,.18-.05l71.71-46.14c.07-.05,.12-.12,.14-.21Z"/>
    <path class="cls-1" d="M245.49,540.48l-40.51,19.41c-.08,.04-.14,.1-.17,.19s-.02,.17,.01,.25l.94,1.93c.06,.11,.17,.18,.29,.18,.05,0,.1-.01,.14-.03l40.53-19.41c.08-.04,.14-.1,.17-.19s.02-.17-.02-.25l-.96-1.93c-.08-.16-.27-.22-.43-.15Z"/>
    <path class="cls-1" d="M277.07,588.05c0-.09-.02-.17-.08-.24-.31-.36-.62-.72-.92-1.09l-.46-.55c-.12-.14-.32-.16-.46-.04l-34.64,28.97c-.07,.05-.11,.13-.11,.22s.02,.17,.08,.24l1.39,1.64c.06,.08,.16,.11,.25,.11,.07,0,.15-.02,.21-.08l34.64-28.97c.07-.06,.11-.13,.11-.22Z"/>
    <path class="cls-1" d="M193.49,532.05s.07,0,.1-.02l42.45-14.11c.08-.03,.15-.09,.19-.17,.04-.08,.04-.17,.01-.25-.17-.45-.32-.91-.48-1.36l-.23-.66c-.06-.17-.24-.26-.41-.2l-42.42,14.11c-.08,.03-.15,.09-.19,.16-.04,.08-.04,.17-.02,.25l.69,2.02c.05,.13,.17,.22,.31,.22Z"/>
    <path class="cls-1" d="M297.13,279.87c.06,.07,.14,.11,.23,.12,0,0,.01,0,.02,0,.08,0,.16-.03,.22-.09,.52-.49,1.06-.96,1.59-1.41,.13-.11,.15-.31,.04-.45l-53.87-66.49c-.05-.07-.13-.11-.22-.12-.09-.01-.17,.02-.24,.07l-1.67,1.35c-.14,.11-.16,.31-.05,.45l53.94,66.57Z"/>
    <path class="cls-1" d="M320,261.93c.05,.08,.12,.13,.21,.15,.02,0,.04,0,.07,0,.07,0,.13-.02,.18-.06,.59-.41,1.19-.81,1.78-1.21,.14-.1,.19-.29,.1-.44l-23.09-37.45c-.09-.15-.29-.2-.45-.11l-1.83,1.11c-.07,.04-.13,.12-.15,.2-.02,.08,0,.17,.04,.24l23.13,37.55Z"/>
    <path class="cls-1" d="M277.09,300.25c.06,.06,.14,.09,.22,.09h.01c.09,0,.17-.04,.23-.11l1.41-1.61c.12-.13,.11-.33-.02-.45l-34.11-32.08c-.13-.12-.33-.12-.46,.01l-1.49,1.55c-.06,.06-.09,.15-.09,.23s.04,.17,.1,.23l34.19,32.13Z"/>
    <path class="cls-1" d="M347.73,246.14c.16-.08,.23-.26,.15-.42l-17.77-38.89c-.04-.08-.1-.14-.18-.17-.08-.03-.17-.03-.25,0l-1.96,.89c-.16,.07-.24,.27-.16,.43l17.8,38.95c.04,.08,.1,.14,.19,.17,.03,.01,.07,.02,.11,.02,.05,0,.1-.01,.15-.03l.46-.23c.49-.24,.97-.49,1.46-.72Z"/>
    <path class="cls-1" d="M388.24,146.82l-2.12,.4c-.08,.02-.16,.06-.21,.14-.05,.07-.07,.16-.05,.24l15.21,80.01c.02,.09,.07,.16,.14,.21,.05,.04,.12,.05,.18,.05,.02,0,.05,0,.07,0,.7-.15,1.4-.29,2.1-.42,.09-.02,.16-.06,.21-.14,.05-.07,.07-.16,.05-.24l-15.2-79.99c-.03-.18-.2-.29-.38-.26Z"/>
    <path class="cls-1" d="M430.36,181.96l-2.14,.13c-.09,0-.17,.04-.22,.11s-.09,.15-.08,.23l2.53,41.2c0,.09,.04,.17,.11,.22,.06,.05,.14,.08,.21,.08,0,0,.02,0,.02,0,.72-.05,1.43-.1,2.14-.13,.09,0,.17-.04,.23-.11,.06-.06,.09-.15,.08-.24l-2.54-41.2c-.01-.18-.17-.32-.34-.3Z"/>
    <path class="cls-1" d="M362.1,194.52c-.08-.04-.17-.05-.25-.02l-2.05,.65c-.17,.05-.26,.24-.21,.41l12.77,39.94c.03,.08,.09,.15,.17,.19,.04,.02,.09,.03,.14,.03,.04,0,.08,0,.11-.02,.66-.25,1.34-.47,2.01-.69,.17-.06,.26-.24,.21-.4l-12.75-39.89c-.03-.08-.08-.15-.16-.19Z"/>
    <path class="cls-1" d="M465.28,182.27l-2.15-.14c-.18-.02-.33,.12-.35,.3l-2.73,41.09c-.01,.18,.12,.33,.3,.34l2.14,.15s.02,0,.02,0c.08,0,.15-.03,.21-.08,.07-.06,.11-.14,.11-.22l2.75-41.1c0-.09-.02-.17-.08-.23s-.14-.1-.22-.11Z"/>
    <path class="cls-1" d="M545.81,157.57c-.04-.08-.11-.13-.19-.16l-2.06-.66c-.17-.06-.35,.04-.41,.21l-25.43,77.88c-.06,.17,.03,.35,.2,.4l2.04,.71s.07,.02,.11,.02c.05,0,.1-.01,.14-.03,.08-.04,.14-.11,.16-.19l25.45-77.92c.03-.08,.02-.17-.02-.25Z"/>
    <path class="cls-1" d="M565.76,208.54c-.03-.08-.09-.15-.17-.18l-1.95-.91c-.16-.08-.36,0-.43,.16l-18.21,38.53c-.08,.16,0,.35,.15,.43,.65,.32,1.29,.64,1.93,.96,.05,.02,.1,.03,.15,.03,.04,0,.07,0,.11-.02,.08-.03,.15-.09,.19-.17l18.23-38.59c.04-.08,.04-.17,.01-.25Z"/>
    <path class="cls-1" d="M499.41,186.74l-2.11-.41c-.09-.02-.17,0-.24,.05-.07,.05-.12,.12-.14,.21l-7.81,40.65c-.03,.17,.08,.34,.25,.38,.7,.14,1.4,.28,2.1,.43,.02,0,.05,0,.07,0,.06,0,.13-.02,.18-.05,.07-.05,.12-.12,.14-.21l7.82-40.68c.03-.17-.08-.34-.26-.38Z"/>
    <path class="cls-1" d="M572.33,262.55c.05,.04,.12,.06,.18,.06,.02,0,.04,0,.07,0,.09-.02,.16-.07,.21-.14l23.44-36.86c.1-.15,.05-.35-.1-.45l-1.82-1.15c-.07-.05-.16-.06-.25-.04-.08,.02-.16,.07-.2,.14l-23.4,36.8c-.09,.15-.05,.34,.09,.44l1.78,1.21Z"/>
  </g>
</svg>